<svg id="SvgjsSvg1049" width="288" height="288" xmlns="http://www.w3.org/2000/svg" version="1.1" xmlns:xlink="http://www.w3.org/1999/xlink" xmlns:svgjs="http://svgjs.com/svgjs"><defs id="SvgjsDefs1050"></defs><g id="SvgjsG1051"><svg xmlns="http://www.w3.org/2000/svg" viewBox="0 0 64 64" width="288" height="288"><path fill="#4d4d4d" d="M59 11H5c-1.654 0-3 1.346-3 3v36c0 1.654 1.346 3 3 3h54c1.654 0 3-1.346 3-3V14c0-1.654-1.346-3-3-3z" class="color4D4D4D svgShape"></path><path fill="#3e3e3e" d="M17 51c-5.24 0-10.279-.683-15-1.928V50c0 1.654 1.346 3 3 3h54c1.654 0 3-1.346 3-3V25.915C55.209 40.563 37.626 51 17 51z" class="color3E3E3E svgShape"></path><path fill="#3ebbdd" d="M2 21h60v10H2z" class="color3EBBDD svgShape"></path><path fill="#ffffff" d="M6 15h2v2H6zM10 15h2v2h-2zM14 15h2v2h-2zM18 15h2v2h-2zM57 43h-8a1 1 0 00-1 1v4a1 1 0 001 1h8a1 1 0 001-1v-4a1 1 0 00-1-1zM45 43h-8a1 1 0 00-1 1v4a1 1 0 001 1h8a1 1 0 001-1v-4a1 1 0 00-1-1zM7 45h15v2H7z" class="colorFFF svgShape"></path></svg></g></svg>