<svg xmlns="http://www.w3.org/2000/svg" width="288" height="288" viewBox="0 0 90 90"><defs><linearGradient id="a" x2="1" y1=".5" y2=".5" gradientUnits="objectBoundingBox"><stop offset="0" stop-color="#ffffff" class="stopColoree0a79 svgShape"></stop><stop offset="1" stop-color="#ffffff" class="stopColorff6900 svgShape"></stop></linearGradient></defs><g data-name="Cross Platforms" transform="translate(-723 -814)" fill="#000000" class="color000 svgShape"><circle cx="45" cy="45" r="45" fill="url(#a)" transform="translate(723 814)"></circle><g transform="translate(750 842)" fill="#000000" class="color000 svgShape"><path fill="none" stroke="#66a7ff" stroke-linecap="square" stroke-miterlimit="10" stroke-width="2" d="M16.566,0H21.3V23.327H0" transform="translate(14.199 5.071)" class="colorStrokefff svgStroke"></path><path fill="none" stroke="#66a7ff" stroke-linecap="square" stroke-miterlimit="10" stroke-width="2" d="M4.926,23.327H0V0H17.242" data-name="Path" transform="translate(0 5.071)" class="colorStrokefff svgStroke"></path><path fill="none" stroke="#66a7ff" stroke-linecap="square" stroke-miterlimit="10" stroke-width="2" d="M13.364,16.228H.835A.824.824,0,0,1,0,15.416V.811A.824.824,0,0,1,.835,0H13.364A.824.824,0,0,1,14.2.811v14.6A.824.824,0,0,1,13.364,16.228Z" data-name="Path" transform="translate(16.228)" class="colorStrokefff svgStroke"></path><path fill="none" stroke="#66a7ff" stroke-linecap="square" stroke-miterlimit="10" stroke-width="2" d="M8.3,13.185H.83A.827.827,0,0,1,0,12.361V.824A.827.827,0,0,1,.83,0H8.3a.827.827,0,0,1,.83.824V12.361A.827.827,0,0,1,8.3,13.185Z" data-name="Path" transform="translate(5.071 21.299)" class="colorStrokefff svgStroke"></path><path fill="none" stroke="#66a7ff" stroke-linecap="square" stroke-miterlimit="10" stroke-width="2" d="M0,.5H5.071" data-name="Path" transform="translate(17.242 32.463)" class="colorStrokefff svgStroke"></path><path fill="none" stroke="#66a7ff" stroke-linecap="square" stroke-miterlimit="10" stroke-width="2" d="M0,.5H1.014" data-name="Path" transform="translate(9.128 29.42)" class="colorStrokefff svgStroke"></path><path fill="none" stroke="#66a7ff" stroke-linecap="square" stroke-miterlimit="10" stroke-width="2" d="M0,.5H2.028" data-name="Path" transform="translate(22.313 12.178)" class="colorStrokefff svgStroke"></path></g></g></svg>