<svg xmlns="http://www.w3.org/2000/svg" enable-background="new 0 0 64 64" viewBox="0 0 64 64" width="288" height="288"><path d="M5.34,40.18c3.75,0,6.8,3.05,6.8,6.8c0,0.54,0.43,0.97,0.97,0.97h37.77c0.54,0,0.97-0.43,0.97-0.97
		c0-3.75,3.05-6.8,6.8-6.8c0.54,0,0.97-0.43,0.97-0.97V24.79c0-0.54-0.43-0.97-0.97-0.97c-3.75,0-6.8-3.05-6.8-6.8
		c0-0.54-0.43-0.97-0.97-0.97H13.12c-0.54,0-0.97,0.43-0.97,0.97c0,3.75-3.05,6.8-6.8,6.8c-0.54,0-0.97,0.43-0.97,0.97v14.43
		C4.37,39.75,4.81,40.18,5.34,40.18z M6.31,25.7c4.05-0.45,7.27-3.67,7.72-7.72h35.94c0.45,4.05,3.67,7.27,7.72,7.72V38.3
		c-4.05,0.45-7.27,3.67-7.72,7.72H14.03c-0.45-4.05-3.67-7.27-7.72-7.72V25.7z" fill="#84bfdc" class="color000 svgShape"></path><path d="M32,43.97c6.6,0,11.97-5.37,11.97-11.97S38.6,20.03,32,20.03S20.03,25.4,20.03,32S25.4,43.97,32,43.97z M32,21.97
		c5.53,0,10.03,4.5,10.03,10.03c0,5.53-4.5,10.03-10.03,10.03c-5.53,0-10.03-4.5-10.03-10.03C21.97,26.47,26.47,21.97,32,21.97z" fill="#84bfdc" class="color000 svgShape"></path><path d="M27.99 37.37c.07.07.18.15.33.23.15.08.32.15.52.23.2.07.42.14.67.2.25.06.51.11.79.15l-.2 1.97c-.01.07-.01.14.01.19.02.06.07.11.14.14.07.04.17.06.3.08.13.02.29.03.5.03.16 0 .3-.01.4-.02.11-.02.19-.04.25-.06.06-.03.1-.06.13-.1.02-.04.04-.08.04-.14l.2-2.08c.62-.05 1.19-.17 1.7-.37.51-.19.95-.45 1.31-.78.36-.32.64-.71.84-1.16s.3-.95.3-1.51c0-.52-.08-.97-.24-1.35-.16-.37-.38-.69-.64-.95-.27-.26-.57-.48-.91-.66-.34-.18-.69-.34-1.04-.47-.35-.14-.7-.27-1.04-.39-.34-.12-.64-.26-.91-.41-.27-.15-.48-.33-.65-.53-.16-.21-.24-.46-.24-.77 0-.19.04-.37.11-.53.07-.16.18-.3.33-.42.15-.12.34-.21.58-.27.24-.06.53-.1.86-.1.37 0 .71.04 1.01.13.31.08.58.17.82.27.24.1.44.19.6.27s.28.13.37.13c.05 0 .08-.01.12-.03.03-.02.06-.07.09-.14.03-.07.04-.17.05-.3.01-.13.01-.29.01-.5 0-.15 0-.28-.01-.39-.01-.11-.02-.21-.03-.29-.02-.08-.04-.15-.07-.2-.03-.06-.07-.11-.13-.16-.05-.06-.15-.12-.3-.18-.14-.07-.3-.13-.48-.19-.17-.06-.36-.11-.56-.16-.2-.05-.39-.08-.57-.11l.19-1.84c0-.07-.01-.14-.03-.19-.02-.06-.06-.11-.14-.14-.07-.04-.17-.06-.31-.08-.13-.02-.3-.03-.5-.03-.17 0-.3.01-.41.02-.1.01-.19.03-.25.06-.06.03-.1.06-.13.1-.02.04-.04.08-.04.13l-.19 1.95c-.56.06-1.07.19-1.51.37-.44.18-.82.43-1.12.72-.3.3-.54.65-.7 1.04-.16.4-.24.84-.24 1.33 0 .54.08 1 .24 1.37.16.38.37.7.64.97.27.27.56.49.9.67.33.18.67.34 1.02.48.35.14.69.26 1.02.38s.63.26.9.41c.27.15.48.33.64.53.16.2.24.46.24.77 0 .47-.18.84-.55 1.12-.37.28-.93.42-1.69.42-.49 0-.91-.05-1.27-.15-.36-.1-.67-.2-.92-.32-.25-.12-.46-.22-.62-.32-.16-.1-.28-.15-.37-.15-.06 0-.12.01-.17.04-.05.03-.09.08-.12.16-.03.08-.05.19-.07.33-.01.14-.02.32-.02.54 0 .28.02.5.05.65C27.86 37.19 27.91 37.3 27.99 37.37zM51.82 35.79c2.09 0 3.79-1.7 3.79-3.79s-1.7-3.79-3.79-3.79-3.79 1.7-3.79 3.79S49.73 35.79 51.82 35.79zM51.82 30.15c1.02 0 1.85.83 1.85 1.85 0 1.02-.83 1.85-1.85 1.85s-1.85-.83-1.85-1.85C49.97 30.98 50.8 30.15 51.82 30.15zM15.97 32c0-2.09-1.7-3.79-3.79-3.79-2.09 0-3.79 1.7-3.79 3.79s1.7 3.79 3.79 3.79C14.27 35.79 15.97 34.09 15.97 32zM10.33 32c0-1.02.83-1.85 1.85-1.85 1.02 0 1.85.83 1.85 1.85 0 1.02-.83 1.85-1.85 1.85C11.16 33.85 10.33 33.02 10.33 32z" fill="#66a7ff" class="color000 svgShape"></path><path d="M63.03,12.55H0.97C0.43,12.55,0,12.99,0,13.52v36.95c0,0.54,0.43,0.97,0.97,0.97h62.06c0.54,0,0.97-0.43,0.97-0.97V13.52
		C64,12.99,63.57,12.55,63.03,12.55z M62.06,49.51H1.94V14.49h60.12V49.51z" fill="#66a7ff" class="color000 svgShape"></path></svg>