<svg xmlns="http://www.w3.org/2000/svg" data-name="Layer 1" viewBox="0 0 32 32" width="288" height="288"><path d="M16,19a1,1,0,0,1-1-1H13a3,3,0,0,0,2,2.82V22h2V20.82A3,3,0,0,0,16,15a1,1,0,1,1,1-1h2a3,3,0,0,0-2-2.82V10H15v1.18A3,3,0,0,0,16,17a1,1,0,0,1,0,2Z" fill="#000000" class="color000 svgShape"></path><path d="M4,13.29A17.76,17.76,0,0,0,15.66,29.94l.34.13.34-.12A17.76,17.76,0,0,0,28,13.29V5H24V2H8V5H4ZM6,7h4V4H22V7h4v6.29A15.76,15.76,0,0,1,16,27.93,15.76,15.76,0,0,1,6,13.29Z" fill="#000000" class="color000 svgShape"></path></svg>